# xmcd
#
# Track frame offsets:
#	150
#	17933
#	31167
#	47728
#	62243
#	78092
#	94800
#	110949
#	129026
#	144650
#	161824
#	178539
#
# Disc length: 2555 seconds
#
# Revision: 1
# Processed by: cddbd v1.5.2PL0 Copyright (c) Steve Scherf et al.
# Submitted via: EZCDAudioConverter 1.0.8.1
#
DISCID=9e09f90c
DTITLE=Medina - Welcome to Medina
DYEAR=2010
DGENRE=Electronic
TTITLE0=Welcome to Medina
TTITLE1=You and I
TTITLE2=Addiction
TTITLE3=Lonely
TTITLE4=6 AM
TTITLE5=In Your Arms
TTITLE6=Happy
TTITLE7=The One
TTITLE8=Gutter
TTITLE9=Selfish
TTITLE10=Execute Me
TTITLE11=You and I (Acoustic Mix)
EXTD=
EXTT0=
EXTT1=
EXTT2=
EXTT3=
EXTT4=
EXTT5=
EXTT6=
EXTT7=
EXTT8=
EXTT9=
EXTT10=
EXTT11=
PLAYORDER=
